<?xml version="1.0" encoding="utf-8"?>
<!-- Generator: Adobe Illustrator 17.0.0, SVG Export Plug-In . SVG Version: 6.00 Build 0)  -->
<!DOCTYPE svg PUBLIC "-//W3C//DTD SVG 1.1//EN" "http://www.w3.org/Graphics/SVG/1.1/DTD/svg11.dtd">
<svg version="1.1" id="Layer_2" xmlns="http://www.w3.org/2000/svg" xmlns:xlink="http://www.w3.org/1999/xlink" x="0px" y="0px"
	 width="509px" height="484px" viewBox="0 0 509 484" enable-background="new 0 0 509 484" xml:space="preserve">
<g>
	<path fill="#C2C1C1" d="M453.536,108.871c-4.967,0-9.009-4.041-9.009-9.009c0-4.967,4.041-9.008,9.009-9.008
		c4.967,0,9.009,4.041,9.009,9.008C462.545,104.83,458.503,108.871,453.536,108.871z M453.536,93.874
		c-3.303,0-5.989,2.686-5.989,5.989s2.686,5.989,5.989,5.989c3.303,0,5.989-2.686,5.989-5.989S456.839,93.874,453.536,93.874z"/>
</g>
<g opacity="0.4">
	<path fill="#C2C1C1" d="M365.203,230.578c-7.683,0-13.934-6.251-13.934-13.934c0-7.683,6.251-13.933,13.934-13.933
		c7.683,0,13.934,6.251,13.934,13.933C379.137,224.327,372.886,230.578,365.203,230.578z M365.203,207.381
		c-5.108,0-9.263,4.155-9.263,9.263s4.155,9.263,9.263,9.263c5.108,0,9.263-4.155,9.263-9.263S370.311,207.381,365.203,207.381z"/>
</g>
<g>
	<g>
		
			<rect x="101.833" y="271.708" transform="matrix(0.5289 0.8487 -0.8487 0.5289 283.7113 35.05)" fill="#C2C1C1" width="16.901" height="2.758"/>
	</g>
	<g>
		
			<rect x="108.904" y="264.636" transform="matrix(0.5289 0.8487 -0.8487 0.5289 283.7311 35.0645)" fill="#C2C1C1" width="2.758" height="16.902"/>
	</g>
</g>
<g>
	
		<rect x="60.481" y="340.633" transform="matrix(0.1528 0.9883 -0.9883 0.1528 397.3873 234.5957)" fill="#ECA920" width="2.759" height="16.901"/>
</g>
<g>
	<path fill="#ECA920" d="M395.246,119.742l-8.411,10.913l-13.659-1.827l-5.246-12.742l8.412-10.913L390,107L395.246,119.742z
		 M385.075,126.386l5.593-7.257l-3.488-8.471l-9.08-1.215l-5.593,7.256l3.488,8.471L385.075,126.386z"/>
</g>
<g>
	<path fill="#C2C1C1" d="M299.114,99.648l3.201-20.965l16.555,13.254L299.114,99.648z M304.617,84.582l-1.545,10.123l9.539-3.723
		L304.617,84.582z"/>
</g>
<g>
	<g>
		
			<rect x="360.145" y="377.323" transform="matrix(-0.2721 0.9623 -0.9623 -0.2721 832.3568 127.5682)" fill="#CECECD" width="15.57" height="2.541"/>
	</g>
	<g>
		
			<rect x="366.66" y="370.808" transform="matrix(-0.2722 0.9622 -0.9622 -0.2722 832.3797 127.6101)" fill="#CECECD" width="2.541" height="15.571"/>
	</g>
</g>
<g>
	<g>
		
			<rect x="82.901" y="115.914" transform="matrix(0.6591 0.752 -0.752 0.6591 121.1081 -31.3662)" fill="#CECECD" width="24.508" height="4"/>
	</g>
	<g>
		
			<rect x="93.155" y="105.659" transform="matrix(0.6591 0.7521 -0.7521 0.6591 121.1214 -31.3639)" fill="#CECECD" width="4" height="24.509"/>
	</g>
</g>
<g>
	<g>
		
			<rect x="415.788" y="186.473" transform="matrix(0.4702 0.8826 -0.8826 0.4702 390.6411 -274.9699)" fill="#CECECD" width="17.094" height="2.79"/>
	</g>
	<g>
		
			<rect x="422.94" y="179.32" transform="matrix(0.4701 0.8826 -0.8826 0.4701 390.6831 -274.9732)" fill="#CECECD" width="2.79" height="17.094"/>
	</g>
</g>
<g opacity="0.8">
	<path fill="#B7B7B7" d="M145.5,240.613l-8.411,10.913l-13.659-1.827l-5.246-12.742l8.412-10.913l13.658,1.827L145.5,240.613z
		 M135.33,247.257l5.593-7.257l-3.488-8.471l-9.08-1.215l-5.593,7.256l3.488,8.471L135.33,247.257z"/>
</g>
<g>
	<path fill="#CECECD" d="M101.433,320.557l15.27-11.622l2.431,19.036L101.433,320.557z M114.49,314.219l-7.373,5.613l8.547,3.579
		L114.49,314.219z"/>
</g>
<g>
	<path fill="#ECA920" d="M407.289,321.638l23.591-12.703l-0.794,26.784L407.289,321.638z M426.678,315.74l-11.392,6.135
		l11.009,6.799L426.678,315.74z"/>
</g>
<g>
	<path fill="#ECA920" d="M53.295,212.195l1.405-18.969l15.726,10.702L53.295,212.195z M57.168,198.34l-0.678,9.16l8.272-3.993
		L57.168,198.34z"/>
</g>
<g>
	<path fill="#C2C1C1" d="M75.166,55.404c-4.721,0-8.562-3.841-8.562-8.562c0-4.721,3.841-8.562,8.562-8.562s8.562,3.841,8.562,8.562
		C83.728,51.563,79.887,55.404,75.166,55.404z M75.166,41.149c-3.139,0-5.692,2.553-5.692,5.692s2.553,5.692,5.692,5.692
		c3.139,0,5.692-2.553,5.692-5.692S78.305,41.149,75.166,41.149z"/>
</g>
<g>
	<path fill="#C2C1C1" d="M96.289,208.698c-3.301,0-5.987-2.686-5.987-5.987c0-3.301,2.686-5.987,5.987-5.987
		c3.301,0,5.987,2.686,5.987,5.987C102.276,206.012,99.59,208.698,96.289,208.698z M96.289,198.731c-2.195,0-3.98,1.785-3.98,3.98
		c0,2.195,1.785,3.98,3.98,3.98c2.195,0,3.98-1.785,3.98-3.98C100.269,200.516,98.484,198.731,96.289,198.731z"/>
</g>
<g opacity="0.6">
	<path fill="#C2C1C1" d="M56.034,274.724l9.11-10.112l15.6,14.053l-9.11,10.112L56.034,274.724z M65.403,269.581l-4.398,4.883
		l10.371,9.343l4.398-4.883L65.403,269.581z"/>
</g>
<g>
	<path fill="#ECA920" d="M367.007,304.6l-4.972-8.752l13.501-7.671l4.972,8.752L367.007,304.6z M365.583,296.826l2.401,4.226
		l8.976-5.1l-2.401-4.225L365.583,296.826z"/>
</g>
<g>
	<path fill="#ECA920" d="M132.603,157.623l-3.322,7.721l-8.348,0.984l-5.026-6.738l3.322-7.721l8.348-0.984L132.603,157.623z
		 M127.596,163.087l2.209-5.134l-3.341-4.479l-5.55,0.654l-2.209,5.133l3.341,4.479L127.596,163.087z"/>
</g>
<g>
	
		<rect x="369.892" y="150.156" transform="matrix(0.1528 0.9883 -0.9883 0.1528 471.2686 -232.544)" fill="#ECA920" width="2.759" height="16.901"/>
</g>
<g>
	
		<rect x="398.952" y="250.769" transform="matrix(-0.706 0.7083 -0.7083 -0.706 866.5413 158.6816)" fill="#D9D9D8" width="2.759" height="16.901"/>
</g>
</svg>
