<svg width="1440px" height="812px" viewBox="0 0 1440 812" version="1.1" xmlns="http://www.w3.org/2000/svg" xmlns:xlink="http://www.w3.org/1999/xlink">
    <defs>
        <rect id="path-1" x="0" y="0" width="1440" height="890"></rect>
        <linearGradient x1="0%" y1="0%" x2="100%" y2="100%" id="linearGradient-3">
            <stop stop-color="#2B56FF" offset="0%"></stop>
            <stop stop-color="#51E1CA" offset="100%"></stop>
        </linearGradient>
        <linearGradient x1="-78.4354968%" y1="-79.5603198%" x2="100%" y2="100%" id="linearGradient-4">
            <stop stop-color="#FFC2A0" offset="0%"></stop>
            <stop stop-color="#F9586B" offset="100%"></stop>
        </linearGradient>
        <linearGradient x1="87.0315366%" y1="54.0131575%" x2="12.9684634%" y2="54.0131575%" id="linearGradient-5">
            <stop stop-color="#FFFFFF" offset="0%"></stop>
            <stop stop-color="#FFFFFF" stop-opacity="0" offset="100%"></stop>
        </linearGradient>
    </defs>
    <g id="Classic" stroke="none" stroke-width="1" fill="none" fill-rule="evenodd">
        <g id="Restaurant" transform="translate(0.000000, -2520.000000)">
            <g id="Group-68" transform="translate(0.000000, 2442.000000)">
                <mask id="mask-2" fill="white">
                    <use xlink:href="#path-1"></use>
                </mask>
                <use id="Mask" fill="#D8D8D8" opacity="0" xlink:href="#path-1"></use>
                <g mask="url(#mask-2)">
                    <g transform="translate(-592.000000, 46.000000)">
                        <g id="Graph" stroke-width="1" fill="none" fill-rule="evenodd">
                            <g id="Group-5">
                                <g id="Group-16" opacity="0.679464286" transform="translate(1067.224095, 499.560229) rotate(12.000000) translate(-1067.224095, -499.560229) translate(38.224095, 207.560229)" stroke="url(#linearGradient-3)" stroke-dasharray="1" stroke-linecap="round" stroke-linejoin="round">
                                    <g id="Group-33" transform="translate(0.110394, 0.561941)" opacity="0.169587054">
                                        <path d="M22.2579759,469.397141 C155.328652,487.924161 278.724391,475.421892 392.445195,431.890333 C563.0264,366.592995 747.214893,197.701485 1035.25798,223.31589 C1323.30106,248.930296 1535.43677,386.852697 1729.13106,382.491123 C1858.26059,379.583407 1964.63623,347.870334 2048.25798,287.351904" id="Line-Copy-2" transform="translate(1035.257976, 349.193749) scale(-1, -1) rotate(-6.000000) translate(-1035.257976, -349.193749) "></path>
                                        <path d="M16.6443603,442.987156 C149.715036,461.514176 273.110776,449.011907 386.831579,405.480348 C557.412784,340.18301 741.601277,171.2915 1029.64436,196.905905 C1317.68744,222.52031 1529.82316,360.442712 1723.51745,356.081138 C1852.64697,353.173422 1959.02261,321.460349 2042.64436,260.941918" id="Line-Copy-3" transform="translate(1029.644360, 322.783764) scale(-1, -1) rotate(-6.000000) translate(-1029.644360, -322.783764) "></path>
                                        <path d="M13.549364,413.99714 C146.62004,432.524161 270.015779,420.021891 383.736583,376.490332 C554.317788,311.192994 738.506281,142.301484 1026.54936,167.91589 C1314.59245,193.530295 1526.72816,331.452696 1720.42245,327.091122 C1849.55198,324.183406 1955.92762,292.470333 2039.54936,231.951903" id="Line-Copy-4" transform="translate(1026.549364, 293.793748) scale(-1, -1) rotate(-6.000000) translate(-1026.549364, -293.793748) "></path>
                                        <path d="M10.4543678,385.007125 C143.525044,403.534145 266.920783,391.031876 380.641587,347.500317 C551.222791,282.202979 735.411285,113.311469 1023.45437,138.925874 C1311.49745,164.540279 1523.63317,302.462681 1717.32746,298.101107 C1846.45698,295.193391 1952.83262,263.480318 2036.45437,202.961887" id="Line-Copy-5" transform="translate(1023.454368, 264.803733) scale(-1, -1) rotate(-6.000000) translate(-1023.454368, -264.803733) "></path>
                                        <path d="M8.12960748,354.83105 C141.200283,373.35807 264.596023,360.855801 378.316826,317.324242 C548.898031,252.026904 733.086525,83.1353942 1021.12961,108.749799 C1309.17269,134.364205 1521.3084,272.286606 1715.00269,267.925032 C1844.13222,265.017316 1950.50786,233.304243 2034.12961,172.785813" id="Line-Copy-6" transform="translate(1021.129607, 234.627658) scale(-1, -1) rotate(-6.000000) translate(-1021.129607, -234.627658) "></path>
                                    </g>
                                </g>
                                <path d="M592,682.498774 L592,656.498774 C602.246945,656.498774 610.000905,656.5565 629.992065,656.749996 C685.249367,657.284837 712.210507,657.03987 746.09778,654.99942 C791.15762,652.286238 832.567449,646.504293 873.198049,636.554026 C971.747108,612.419768 1063.14274,564.08519 1152.24033,482.834367 C1171.57413,465.203281 1238.5542,402.619118 1248.12517,393.789624 C1307.03333,339.445157 1352.25003,300.977297 1400.58667,265.727813 C1460.51508,222.025039 1520.55212,187.353592 1584.72175,160.845949 C1735.20987,98.6812559 1906.76058,82.617799 2115.26556,119.519391 L2110.73444,145.12152 C1906.97476,109.059759 1740.43443,124.654059 1594.64841,184.876376 C1532.5035,210.547635 1474.24314,244.193046 1415.90629,286.735178 C1368.52499,321.287978 1323.99295,359.173366 1265.75479,412.899735 C1256.29147,421.629921 1189.23459,484.285859 1169.75967,502.045631 C1077.4265,586.247077 982.127464,636.645972 879.382586,661.807768 C837.128084,672.155722 794.193951,678.150502 747.660485,680.952415 C712.985194,683.040314 685.583222,683.289286 629.740421,682.748778 C609.836886,682.55613 602.132584,682.498774 592,682.498774 Z" id="Path-10" fill="url(#linearGradient-3)" fill-rule="nonzero"></path>
                                <g id="Group-55" transform="translate(1615.000000, 74.000000)">
                                    <g id="Group-22" fill-rule="nonzero" stroke="url(#linearGradient-3)">
                                        <g id="Group-23">
                                            <circle id="Oval-3-Copy" fill="url(#linearGradient-3)" opacity="0.273102679" cx="68" cy="68" r="68"></circle>
                                            <circle id="Oval-3" stroke-width="3" fill="url(#linearGradient-3)" opacity="0.273102679" cx="68.1734694" cy="68.1734694" r="50.1734694"></circle>
                                            <circle id="Oval-3-Copy-3" stroke-width="5" fill="#FFFFFF" cx="68.5" cy="68.5" r="33"></circle>
                                        </g>
                                    </g>
                                    <g id="Group-118" transform="translate(87.000000, 55.000000) scale(-1.5, 1.5)" fill="url(#linearGradient-4)">
                                        <g id="Group-26" transform="translate(3.000000, 0.000000)">
                                            <path d="M1.23090817,1.4770898 C1.23090817,1.34098696 1.34098696,1.23090817 1.4770898,1.23090817 L16.8229102,1.23090817 C16.9587139,1.23090817 17.0690918,1.34098696 17.0690918,1.4770898 L17.0690918,10.7862254 C17.0690918,10.947455 16.9380741,11.0784727 16.7765455,11.0784727 L1.52315538,11.0784727 C1.36162673,11.0784727 1.23090817,10.947455 1.23090817,10.7862254 L1.23090817,1.4770898 Z M0.292247213,12.3093808 L18.0077528,12.3093808 C18.1689823,12.3093808 18.3,12.1786623 18.3,12.0171336 L18.3,1.35384942 C18.3,0.60603158 17.6936693,0 16.9458514,0 L1.35384942,0 C0.60603158,0 0,0.60603158 0,1.35384942 L0,12.0171336 C0,12.1786623 0.130718559,12.3093808 0.292247213,12.3093808 Z"></path>
                                            <polyline points="12.3160884 4.81320437 6 3 9.58230544 8.50856332 9.81338184 6.32327624 12.519212 8.32469607 13 7.67494898 10.2941698 5.67352915 12.3160884 4.81320437"></polyline>
                                        </g>
                                        <path d="M20.8941,14.3046 L3.1059,14.3046 C2.9493,14.3046 2.8503,14.1366 2.9262,13.9995 L3.645,12.7026 C3.6813,12.6375 3.75,12.5967 3.8247,12.5967 L20.1753,12.5967 C20.25,12.5967 20.3187,12.6375 20.355,12.7026 L21.0738,13.9995 C21.1497,14.1366 21.0507,14.3046 20.8941,14.3046 Z M14.649,15.6627 L9.351,15.6627 C9.2916,15.6627 9.2457,15.6099 9.2541,15.5511 L9.3501,14.8623 C9.357,14.814 9.3984,14.7777 9.4473,14.7777 L14.5527,14.7777 C14.6016,14.7777 14.643,14.814 14.6499,14.8623 L14.7459,15.5511 C14.7543,15.6099 14.7084,15.6627 14.649,15.6627 Z M23.91,15.8397 L21.5655,12.2307 C21.4665,12.0864 21.3027,12 21.1278,12 L2.8722,12 C2.697,12 2.5335,12.0864 2.4345,12.2307 L0.0903,15.8397 C0.0315,15.9255 0,16.0269 0,16.1307 L0,16.3611 C0,16.6458 0.2307,16.8765 0.5154,16.8765 L23.4846,16.8765 C23.7693,16.8765 24,16.6458 24,16.3611 L24,16.1307 C24,16.0269 23.9685,15.9255 23.91,15.8397 Z"></path>
                                    </g>
                                </g>
                            </g>
                            <g id="Group-18-Copy" transform="translate(1210.041434, 839.075708) scale(-1, 1) rotate(-8.000000) translate(-1210.041434, -839.075708) translate(159.041434, 440.075708)">
                                <path d="M0,789.703392 C133.070676,808.230412 256.466415,795.728143 370.187219,752.196584 C540.768424,686.899246 724.956917,518.007736 1013,543.622141 C1301.04308,569.236546 1513.1788,707.158948 1706.87309,702.797374 C1836.00261,699.889658 1942.37825,668.176585 2026,607.658154" id="Line" stroke="url(#linearGradient-3)" stroke-width="2" opacity="0.501004464" stroke-linecap="round" stroke-linejoin="round" stroke-dasharray="1,15"></path>
                                <path d="M75.8608269,249.69366 C208.931503,268.22068 332.327242,255.718411 446.048046,212.186852 C616.629251,146.889514 800.817744,-22.001996 1088.86083,3.61240928 C1376.90391,29.2268145 1589.03962,167.149216 1782.73391,162.787642 C1911.86344,159.879926 2018.23908,128.166853 2101.86083,67.6484224" id="Line-Copy" stroke="url(#linearGradient-3)" stroke-width="2" stroke-linecap="round" stroke-linejoin="round" stroke-dasharray="1,15"></path>
                                <g id="Dot-Copy-3" transform="translate(278.304134, 233.951340)">
                                    <circle id="Oval-13" fill="url(#linearGradient-3)" opacity="0.209999993" cx="17.0291262" cy="17.0291262" r="17.0291262"></circle>
                                    <circle id="Oval-13" fill="#FFFFFF" cx="17.0291262" cy="17.0291262" r="8.51456311"></circle>
                                    <circle id="Oval-13" fill="#2B56FF" cx="17.0291262" cy="17.0291262" r="2.8381877"></circle>
                                </g>
                                <g id="Dot-Copy-2" transform="translate(1332.000000, 38.000000)">
                                    <circle id="Oval-13" fill="url(#linearGradient-3)" opacity="0.209999993" cx="17.0291262" cy="17.0291262" r="17.0291262"></circle>
                                    <circle id="Oval-13" fill="#FFFFFF" cx="17.0291262" cy="17.0291262" r="8.51456311"></circle>
                                    <circle id="Oval-13" fill="#2B56FF" cx="17.0291262" cy="17.0291262" r="2.8381877"></circle>
                                </g>
                            </g>
                        </g>
                        <rect id="Rectangle-53" fill="url(#linearGradient-5)" fill-rule="nonzero" transform="translate(821.000000, 584.500000) rotate(-180.000000) translate(-821.000000, -584.500000) " x="547" y="316" width="548" height="537"></rect>
                        <rect id="Rectangle-53-Copy" fill="url(#linearGradient-5)" fill-rule="nonzero" transform="translate(1882.500000, 448.500000) rotate(-360.000000) translate(-1882.500000, -448.500000) " x="1686" y="32" width="393" height="833"></rect>
                    </g>
                </g>
            </g>
        </g>
    </g>
</svg>