<?xml version="1.0" encoding="UTF-8"?>
<svg width="1440px" height="2114px" viewBox="0 0 1440 2114" version="1.1" xmlns="http://www.w3.org/2000/svg" xmlns:xlink="http://www.w3.org/1999/xlink">
    <!-- Generator: Sketch 52.5 (67469) - http://www.bohemiancoding.com/sketch -->
    <title>Group 34</title>
    <desc>Created with Sketch.</desc>
    <defs>
        <linearGradient x1="0%" y1="0%" x2="100%" y2="100%" id="linearGradient-1">
            <stop stop-color="#611CBE" offset="0%"></stop>
            <stop stop-color="#8B75FF" offset="100%"></stop>
        </linearGradient>
    </defs>
    <g id="Classic" stroke="none" stroke-width="1" fill="none" fill-rule="evenodd">
        <g id="Staffing-Solutions" transform="translate(0.000000, -892.000000)">
            <g id="Group-34" transform="translate(-377.000000, 750.000000)">
                <g id="Group-18-Copy" transform="translate(1097.000000, 542.000000) scale(-1, 1) rotate(-8.000000) translate(-1097.000000, -542.000000) translate(46.000000, 143.000000)">
                    <path d="M0,789.703392 C133.070676,808.230412 256.466415,795.728143 370.187219,752.196584 C540.768424,686.899246 724.956917,518.007736 1013,543.622141 C1301.04308,569.236546 1513.1788,707.158948 1706.87309,702.797374 C1836.00261,699.889658 1942.37825,668.176585 2026,607.658154" id="Line" stroke="url(#linearGradient-1)" stroke-width="2" opacity="0.501004464" stroke-linecap="round" stroke-linejoin="round" stroke-dasharray="1,15"></path>
                    <g id="Dot-Copy" transform="translate(1256.278346, 579.019464)">
                        <circle id="Oval-13" fill="url(#linearGradient-1)" opacity="0.209999993" cx="17.0291262" cy="17.0291262" r="17.0291262"></circle>
                        <circle id="Oval-13" fill="#FFFFFF" cx="17.0291262" cy="17.0291262" r="8.51456311"></circle>
                        <circle id="Oval-13" fill="#611CBE" cx="17.0291262" cy="17.0291262" r="2.8381877"></circle>
                    </g>
                    <path d="M75.8608269,249.69366 C208.931503,268.22068 332.327242,255.718411 446.048046,212.186852 C616.629251,146.889514 800.817744,-22.001996 1088.86083,3.61240928 C1376.90391,29.2268145 1589.03962,167.149216 1782.73391,162.787642 C1911.86344,159.879926 2018.23908,128.166853 2101.86083,67.6484224" id="Line-Copy" stroke="url(#linearGradient-1)" stroke-width="2" stroke-linecap="round" stroke-linejoin="round" stroke-dasharray="1,15"></path>
                    <g id="Dot-Copy-2" transform="translate(1332.000000, 38.000000)">
                        <circle id="Oval-13" fill="url(#linearGradient-1)" opacity="0.209999993" cx="17.0291262" cy="17.0291262" r="17.0291262"></circle>
                        <circle id="Oval-13" fill="#FFFFFF" cx="17.0291262" cy="17.0291262" r="8.51456311"></circle>
                        <circle id="Oval-13" fill="#611CBE" cx="17.0291262" cy="17.0291262" r="2.8381877"></circle>
                    </g>
                </g>
                <g id="Group-18-Copy-3" transform="translate(1097.301808, 1766.387889) rotate(-8.000000) translate(-1097.301808, -1766.387889) translate(46.301808, 1367.387889)">
                    <path d="M0,789.703392 C133.070676,808.230412 256.466415,795.728143 370.187219,752.196584 C540.768424,686.899246 724.956917,518.007736 1013,543.622141 C1301.04308,569.236546 1513.1788,707.158948 1706.87309,702.797374 C1836.00261,699.889658 1942.37825,668.176585 2026,607.658154" id="Line" stroke="url(#linearGradient-1)" stroke-width="2" opacity="0.501004464" stroke-linecap="round" stroke-linejoin="round" stroke-dasharray="1,15"></path>
                    <g id="Dot-Copy" transform="translate(1256.278346, 579.019464)">
                        <circle id="Oval-13" fill="url(#linearGradient-1)" opacity="0.209999993" cx="17.0291262" cy="17.0291262" r="17.0291262"></circle>
                        <circle id="Oval-13" fill="#FFFFFF" cx="17.0291262" cy="17.0291262" r="8.51456311"></circle>
                        <circle id="Oval-13" fill="#611CBE" cx="17.0291262" cy="17.0291262" r="2.8381877"></circle>
                    </g>
                    <path d="M75.8608269,249.69366 C208.931503,268.22068 332.327242,255.718411 446.048046,212.186852 C616.629251,146.889514 800.817744,-22.001996 1088.86083,3.61240928 C1376.90391,29.2268145 1589.03962,167.149216 1782.73391,162.787642 C1911.86344,159.879926 2018.23908,128.166853 2101.86083,67.6484224" id="Line-Copy" stroke="url(#linearGradient-1)" stroke-width="2" stroke-linecap="round" stroke-linejoin="round" stroke-dasharray="1,15"></path>
                    <g id="Dot-Copy-2" transform="translate(1332.000000, 38.000000)">
                        <circle id="Oval-13" fill="url(#linearGradient-1)" opacity="0.209999993" cx="17.0291262" cy="17.0291262" r="17.0291262"></circle>
                        <circle id="Oval-13" fill="#FFFFFF" cx="17.0291262" cy="17.0291262" r="8.51456311"></circle>
                        <circle id="Oval-13" fill="#611CBE" cx="17.0291262" cy="17.0291262" r="2.8381877"></circle>
                    </g>
                </g>
                <g id="Group-18-Copy-2" opacity="0.414285714" transform="translate(1210.301808, 689.387889) rotate(-8.000000) translate(-1210.301808, -689.387889) translate(159.301808, 290.387889)">
                    <path d="M0,789.703392 C133.070676,808.230412 256.466415,795.728143 370.187219,752.196584 C540.768424,686.899246 724.956917,518.007736 1013,543.622141 C1301.04308,569.236546 1513.1788,707.158948 1706.87309,702.797374 C1836.00261,699.889658 1942.37825,668.176585 2026,607.658154" id="Line" stroke="url(#linearGradient-1)" stroke-width="2" opacity="0.501004464" stroke-linecap="round" stroke-linejoin="round" stroke-dasharray="1,15"></path>
                    <g id="Dot" transform="translate(232.000000, 563.000000)">
                        <circle id="Oval-13" fill="url(#linearGradient-1)" opacity="0.209999993" cx="17.0291262" cy="17.0291262" r="17.0291262"></circle>
                        <circle id="Oval-13" fill="#FFFFFF" cx="17.0291262" cy="17.0291262" r="8.51456311"></circle>
                        <circle id="Oval-13" fill="#611CBE" cx="17.0291262" cy="17.0291262" r="2.8381877"></circle>
                    </g>
                    <g id="Dot-Copy" transform="translate(1256.278346, 579.019464)">
                        <circle id="Oval-13" fill="url(#linearGradient-1)" opacity="0.209999993" cx="17.0291262" cy="17.0291262" r="17.0291262"></circle>
                        <circle id="Oval-13" fill="#FFFFFF" cx="17.0291262" cy="17.0291262" r="8.51456311"></circle>
                        <circle id="Oval-13" fill="#611CBE" cx="17.0291262" cy="17.0291262" r="2.8381877"></circle>
                    </g>
                    <path d="M75.8608269,249.69366 C208.931503,268.22068 332.327242,255.718411 446.048046,212.186852 C616.629251,146.889514 800.817744,-22.001996 1088.86083,3.61240928 C1376.90391,29.2268145 1589.03962,167.149216 1782.73391,162.787642 C1911.86344,159.879926 2018.23908,128.166853 2101.86083,67.6484224" id="Line-Copy" stroke="url(#linearGradient-1)" stroke-width="2" stroke-linecap="round" stroke-linejoin="round" stroke-dasharray="1,15"></path>
                    <g id="Dot-Copy-3" transform="translate(278.304134, 233.951340)">
                        <circle id="Oval-13" fill="url(#linearGradient-1)" opacity="0.209999993" cx="17.0291262" cy="17.0291262" r="17.0291262"></circle>
                        <circle id="Oval-13" fill="#FFFFFF" cx="17.0291262" cy="17.0291262" r="8.51456311"></circle>
                        <circle id="Oval-13" fill="#611CBE" cx="17.0291262" cy="17.0291262" r="2.8381877"></circle>
                    </g>
                    <g id="Dot-Copy-2" transform="translate(1332.000000, 38.000000)">
                        <circle id="Oval-13" fill="url(#linearGradient-1)" opacity="0.209999993" cx="17.0291262" cy="17.0291262" r="17.0291262"></circle>
                        <circle id="Oval-13" fill="#FFFFFF" cx="17.0291262" cy="17.0291262" r="8.51456311"></circle>
                        <circle id="Oval-13" fill="#611CBE" cx="17.0291262" cy="17.0291262" r="2.8381877"></circle>
                    </g>
                </g>
            </g>
        </g>
    </g>
</svg>