<?xml version="1.0" encoding="UTF-8"?>
<svg width="115px" height="98px" viewBox="0 0 115 98" version="1.1" xmlns="http://www.w3.org/2000/svg" xmlns:xlink="http://www.w3.org/1999/xlink">
    <!-- Generator: Sketch 52.4 (67378) - http://www.bohemiancoding.com/sketch -->
    <title>Icono-recarga</title>
    <desc>Created with Sketch.</desc>
    <g id="Icono-recarga" stroke="none" stroke-width="1" fill="none" fill-rule="evenodd">
        <g id="Group-3" transform="translate(16.000000, 39.000000)">
            <g id="Group">
                <rect id="Rectangle" fill="#408EE2" x="0" y="0" width="81.7429194" height="56" rx="6"></rect>
                <path d="M55.5832062,36.7843138 C55.5832062,38.7890441 56.372874,40.6854105 57.7888301,42.1212309 C58.3606585,42.6630499 58.3606585,43.5841421 57.7888301,44.1259611 C57.5165308,44.3968706 57.1353119,44.5323254 56.7813229,44.5323254 C56.4273339,44.5323254 56.0461149,44.3968706 55.7738157,44.1259611 C53.8132611,42.1754128 52.7240642,39.5475907 52.7240642,36.7843138 C52.7240642,31.5286696 56.6451733,27.1670268 61.7371691,26.489753 L61.7371691,24.5933866 C61.7371691,24.0244766 62.3906873,23.7264762 62.826366,24.0515676 L67.0742342,27.3295725 C67.4282232,27.600482 67.4282232,28.11521 67.0742342,28.3861195 L62.826366,31.6099425 C62.3906873,31.9350339 61.7371691,31.6370334 61.7371691,31.0681235 L61.7371691,29.3884846 C58.2517388,30.0386674 55.5832062,33.0999447 55.5832062,36.7843138 Z M73.5821861,36.7843138 C73.5821861,42.039958 69.661077,46.3745099 64.5690812,47.0788746 L64.5690812,48.9752411 C64.5690812,49.544151 63.915563,49.8421515 63.4798842,49.5170601 L59.2320161,46.2661461 C58.878027,45.9952366 58.878027,45.4805086 59.2320161,45.2095991 L63.4798842,41.9586852 C63.915563,41.6335938 64.5690812,41.9315942 64.5690812,42.5005042 L64.5690812,44.180143 C68.0545115,43.5299602 70.7230441,40.468683 70.7230441,36.7843138 C70.7230441,34.7524926 69.9606062,32.8832171 68.5174202,31.4473968 C67.9455918,30.9055778 67.9455918,29.9844855 68.5174202,29.4426665 C69.0620187,28.9008475 69.9878361,28.9008475 70.5324346,29.4426665 C72.4929891,31.3932149 73.5821861,34.021037 73.5821861,36.7843138 Z" id="Path-2" fill="#FFFFFF"></path>
                <rect id="Rectangle" fill="#2F78C8" x="0" y="7.46666667" width="81.7429194" height="9.95555556"></rect>
            </g>
            <g id="Group-3-Copy-2" transform="translate(11.200000, 24.436364)" fill="#6EC0FF">
                <path d="M2.45878991,4.41484204 L8.94490812,4.41484204 C10.5417164,4.41484204 11.6474543,4.70584962 12.2621548,5.28787351 C12.8768554,5.86989739 13.1842011,6.70033365 13.1842011,7.7792072 C13.1842011,8.17668693 13.1559394,8.55286745 13.0994152,8.90776007 C12.9722358,9.66013241 12.6578247,10.3237716 12.1561725,10.8986977 C11.6545204,11.4736237 11.0080346,11.8462554 10.216696,12.0166038 C11.0362967,12.2437351 11.6262591,12.5950735 11.9866008,13.0706296 C12.3469425,13.5461857 12.5271107,14.2311182 12.5271107,15.1254476 C12.5271107,15.5513187 12.4847182,16.0126722 12.3999319,16.5095218 C12.1879662,17.8723095 11.5909384,18.834054 10.6088306,19.3947844 C9.62672282,19.9555147 8.23130285,20.2358757 6.42252881,20.2358757 L0,20.2358757 L2.45878991,4.41484204 Z M7.80029902,10.6325295 C8.18183729,10.6325295 8.46092129,10.5438077 8.63755938,10.3663614 C8.81419747,10.1889151 8.93784228,9.95114063 9.00849751,9.65303083 C9.07915275,9.32652963 9.11447983,9.08520627 9.11447983,8.92905352 C9.11447983,8.63094372 9.02969482,8.42156022 8.86012226,8.30089673 C8.69054969,8.18023324 8.42912924,8.11990241 8.07585306,8.11990241 L5.99859952,8.11990241 L5.59586669,10.6325295 L7.80029902,10.6325295 Z M6.95244043,16.5308153 C7.51768232,16.5308153 7.92394383,16.4314469 8.17123715,16.232707 C8.41853048,16.0339671 8.57750238,15.6648843 8.64815761,15.1254476 C8.66228866,15.0260776 8.66935408,14.8841227 8.66935408,14.6995786 C8.66935408,14.3588817 8.56690552,14.1175583 8.36200534,13.9756013 C8.15710515,13.8336442 7.80736698,13.7626668 7.31278033,13.7626668 L5.108348,13.7626668 L4.68441871,16.5308153 L6.95244043,16.5308153 Z" id="BITSA"></path>
                <path d="M4.91748579,2.8949502 L3.215311,2.18028409 C3.69555594,0.726761364 4.45881343,0 5.50508346,0 C7.0744885,0 7.04076312,1.09524167 8.11702341,1.09524167 C8.51895284,1.09524167 8.82567629,0.818297384 9.03719375,0.264408817 L10.7177033,1.07837369 C10.0866326,2.50299857 9.27029998,3.215311 8.2687056,3.215311 C6.76631402,3.215311 6.69990182,2.10513006 5.71973425,2.18028409 C5.37381597,2.20680726 5.10639982,2.4450293 4.91748579,2.8949502 Z" id="Path-9"></path>
            </g>
        </g>
        <g id="Group-2" transform="translate(87.000000, 8.000000)">
            <circle id="Oval" fill="#F08900" cx="12.5" cy="12.5" r="12.5"></circle>
            <path d="M15.4002324,14.3567703 L10.5186445,14.3567703 C11.117501,15.9446474 12.5511272,16.8066378 14.429359,16.8066378 C15.1461721,16.8066378 15.8811323,16.7612699 16.2350021,16.6614605 L16.2350021,18.9570771 C15.7722493,19.0568865 15.1098777,19.111328 14.4202854,19.111328 C10.9541765,19.111328 8.43172035,17.3964207 7.74212801,14.3567703 L6,14.3567703 L6,13.3223818 L7.57880351,13.3223818 C7.55158276,13.0683215 7.54250918,12.8142611 7.54250918,12.5511272 C7.54250918,12.315214 7.55158276,12.0793009 7.56972993,11.8524613 L6,11.8524613 L6,10.8180728 L7.72398084,10.8180728 C8.39542602,7.73305443 10.9269558,6 14.4202854,6 C15.0372891,6 15.7813229,6.09073583 16.1987077,6.20869242 L16.1987077,8.47708827 C15.7631757,8.37727885 15.1098777,8.31376376 14.4656533,8.31376376 C12.5511272,8.31376376 11.0902803,9.19390135 10.5004974,10.8180728 L15.4002324,10.8180728 L15.4002324,11.8524613 L10.2555106,11.8524613 C10.2373634,12.0793009 10.2192163,12.3061405 10.2192163,12.5511272 C10.2192163,12.8233347 10.2373634,13.077395 10.2645842,13.3223818 L15.4002324,13.3223818 L15.4002324,14.3567703 Z" id="€" fill="#FFFFFF"></path>
        </g>
    </g>
</svg>