<svg xmlns="http://www.w3.org/2000/svg" xmlns:xlink="http://www.w3.org/1999/xlink" viewBox="-83.5 1547.5 133 133">
  <defs>
    <style>
      .cls-1 {
        fill: #f7cad3;
      }

      .cls-2 {
        fill: #fe657a;
      }

      .cls-3 {
        fill: #777;
      }

      .cls-4 {
        filter: url(#Path_3034);
      }
    </style>
    <filter id="Path_3034" x="-83.5" y="1547.5" width="133" height="133" filterUnits="userSpaceOnUse">
      <feOffset dy="5" input="SourceAlpha"/>
      <feGaussianBlur stdDeviation="5.5" result="blur"/>
      <feFlood flood-color="#777" flood-opacity="0.2"/>
      <feComposite operator="in" in2="blur"/>
      <feComposite in="SourceGraphic"/>
    </filter>
  </defs>
  <g id="Group_1692" data-name="Group 1692" transform="translate(-292 -2678)">
    <g class="cls-4" transform="matrix(1, 0, 0, 1, 292, 2678)">
      <path id="Path_3034-2" data-name="Path 3034" class="cls-1" d="M44.091,0H55.909A44.091,44.091,0,0,1,100,44.091V55.909A44.091,44.091,0,0,1,55.909,100H44.091A44.091,44.091,0,0,1,0,55.909V44.091A44.091,44.091,0,0,1,44.091,0Z" transform="translate(-67 1559)"/>
    </g>
    <g id="Group_1639" data-name="Group 1639" transform="translate(237.5 4260.265)">
      <path id="Path_3058" data-name="Path 3058" class="cls-2" d="M76.837,24.32l-5.77,5.77-16.9-16.9,5.77-5.77ZM7.3,24.67l4.954,4.954,17.37-17.37L24.67,7.3Z" transform="translate(-3.045 -3.045)"/>
      <path id="Path_3059" data-name="Path 3059" class="cls-3" d="M40.043,60.735a3.267,3.267,0,0,1-2.331-.991l-1.4-1.4-.291.291c-.874.874-1.4,1.4-2.448,1.4a2.468,2.468,0,0,1-1.749-.7l-1.4-1.4c-1.632-1.632-1.982-1.982-2.157-2.739a3.324,3.324,0,0,1-1.282-.641L24.131,51.7a2.085,2.085,0,0,1-.641-1.282,3.324,3.324,0,0,1-1.282-.641l-2.856-2.856a2.519,2.519,0,0,1-.7-1.282A3.324,3.324,0,0,1,17.37,45l-2.856-2.856a2.535,2.535,0,0,1,0-3.5l.466-.466-3.148-3.148a4.362,4.362,0,0,1,0-6.178l.408-.408L9.909,25.938l1.574-1.574,3.964,3.964-2.04,1.923a2.147,2.147,0,0,0,0,3.089l3.148,3.148L19,34.04a3.893,3.893,0,0,1,2.739-1.166,3.7,3.7,0,0,1,2.739,1.166l.816.816a3.9,3.9,0,0,1,.933,1.457h0a3.893,3.893,0,0,1,2.739-1.166,3.7,3.7,0,0,1,2.739,1.166l.816.816a3.893,3.893,0,0,1,1.166,2.739v.058h.058a3.7,3.7,0,0,1,2.739,1.166l.816.816a3.925,3.925,0,0,1,1.166,2.8A3.7,3.7,0,0,1,37.3,47.446l-1.515,1.515a5.066,5.066,0,0,1,2.04,1.457l.291.291a3.893,3.893,0,0,1,1.166,2.739,3.7,3.7,0,0,1-1.166,2.739l-.233.583,1.4,1.4a1.131,1.131,0,0,0,1.515,0l.816-.816c1.049-1.049,1.632-1.574,1.632-2.04,0-.408-.525-.933-1.457-1.923L40.451,52.05l1.574-1.574,2.448,2.448a.965.965,0,0,0,.758.291,1.108,1.108,0,0,0,.758-.291,12,12,0,0,1,.933-.874c.991-.933,1.515-1.457,1.515-1.923,0-.525-.641-1.166-1.982-2.448-.35-.35-.758-.7-1.166-1.166l-.175-.175,1.574-1.574,2.973,2.973a.965.965,0,0,0,.758.291,1.108,1.108,0,0,0,.758-.291l2.1-2.1a1.091,1.091,0,0,0,0-1.515l-4.488-4.488,1.574-1.574,4.488,4.488a1.131,1.131,0,0,0,1.515,0l2.1-2.1a.965.965,0,0,0,.291-.758,1.108,1.108,0,0,0-.291-.758L45.814,26.4a7.9,7.9,0,0,1-3.905.933,11.791,11.791,0,0,1-4.9-1.166l-5.188,5.188A4.286,4.286,0,0,1,25.763,25.3l9.209-9.209-2.157-2.157a2.112,2.112,0,0,0-3.031,0L27.8,15.912l-3.964-3.964,1.574-1.574,2.39,2.39.408-.408a4.362,4.362,0,0,1,6.178,0l2.157,2.157,2.273-2.273a4.859,4.859,0,0,1,3.439-1.457,5.348,5.348,0,0,1,3.556,1.457l2.39-2.39,1.574,1.574-3.964,3.964-.175-.175-.583-.583C44.007,13.581,43.482,13,42.316,13h-.175c-.991,0-1.166.117-7.636,6.645-1.807,1.865-4.2,4.2-7.169,7.228a2.04,2.04,0,0,0,1.457,3.5,2.3,2.3,0,0,0,1.457-.583L36.6,23.431l.175.117a10.333,10.333,0,0,0,5.129,1.632A6.1,6.1,0,0,0,47.329,21.8l.117-.175,1.923,1.107-.117.175a10.469,10.469,0,0,1-1.632,2.157l10.2,10.2,2.04-2.04a2.551,2.551,0,0,0,.758-1.865c0-1.166-.583-1.749-1.632-2.739l-.583-.583-.175-.175L62.192,23.9l1.574,1.574-2.39,2.39a4.877,4.877,0,0,1,.058,6.936l-2.04,2.04.641.641a3.238,3.238,0,0,1,0,4.663l-2.1,2.1a3.05,3.05,0,0,1-2.157.933,3.633,3.633,0,0,1-.933,2.157l-2.1,2.1a3.05,3.05,0,0,1-2.157.933c-.058,1.341-.758,2.04-2.157,3.322a6.182,6.182,0,0,0-.874.874,3.05,3.05,0,0,1-2.157.933c-.058,1.341-.758,2.04-2.157,3.322a6.182,6.182,0,0,0-.874.874A3.107,3.107,0,0,1,40.043,60.735ZM34.739,51c-.758,0-.933.175-2.739,2.04L30.542,54.5c-.117.117-.117.291,0,.35L33.4,57.7a.291.291,0,0,0,.35,0l3.031-3.031a1.817,1.817,0,0,0,.525-1.224c0-.758-.408-1.107-.991-1.749a1.546,1.546,0,0,0-.35-.291A2.2,2.2,0,0,0,34.739,51Zm-.758-8.86c-.874,0-2.157,1.282-4.954,4.2-.933.933-2.04,2.1-3.322,3.381-.117.117-.117.291,0,.35l2.856,2.856a.291.291,0,0,0,.35,0L35.9,45.93a1.623,1.623,0,0,0,0-2.39C35.089,42.666,34.564,42.142,33.981,42.142Zm-4.78-4.78c-.874,0-2.157,1.341-5.013,4.2-.933.933-2.04,2.04-3.322,3.381-.117.117-.117.291,0,.35l2.856,2.856a.291.291,0,0,0,.35,0l7.053-7.053a1.725,1.725,0,0,0,0-2.39C30.251,37.828,29.726,37.362,29.2,37.362Zm-7.4-2.273c-.758,0-.816.058-3.439,2.739-.641.641-1.341,1.4-2.273,2.331-.117.117-.117.291,0,.35l2.856,2.856a.291.291,0,0,0,.35,0l4.546-4.546a1.725,1.725,0,0,0,0-2.39l-.35-.35C22.907,35.439,22.557,35.089,21.8,35.089ZM46.921,7.577,54.5,0,73.617,19.118,66.039,26.7ZM66.039,23.49l4.43-4.43L54.5,3.148l-4.43,4.43ZM0,19.118,18.594.525,26.171,8.1,7.577,26.637ZM7.577,23.49,23.023,8.044l-4.43-4.43L3.148,19.118Zm55.548-4.721L64.7,17.195l2.331,2.331L65.456,21.1Zm-57.588.758,2.331-2.331,1.574,1.574L7.111,21.1Z"/>
    </g>
  </g>
</svg>
