<svg xmlns="http://www.w3.org/2000/svg" xmlns:xlink="http://www.w3.org/1999/xlink" viewBox="406.5 1247.5 133 133">
  <defs>
    <style>
      .cls-1 {
        fill: #c9ebe6;
      }

      .cls-2 {
        fill: #67d0ba;
      }

      .cls-3 {
        fill: #777;
      }

      .cls-4 {
        filter: url(#Path_3043);
      }
    </style>
    <filter id="Path_3043" x="406.5" y="1247.5" width="133" height="133" filterUnits="userSpaceOnUse">
      <feOffset dy="5" input="SourceAlpha"/>
      <feGaussianBlur stdDeviation="5.5" result="blur"/>
      <feFlood flood-color="#777" flood-opacity="0.2"/>
      <feComposite operator="in" in2="blur"/>
      <feComposite in="SourceGraphic"/>
    </filter>
  </defs>
  <g id="Group_1686" data-name="Group 1686" transform="translate(-312 -2682)">
    <g class="cls-4" transform="matrix(1, 0, 0, 1, 312, 2682)">
      <path id="Path_3043-2" data-name="Path 3043" class="cls-1" d="M44.091,0H55.909A44.091,44.091,0,0,1,100,44.091V55.909A44.091,44.091,0,0,1,55.909,100H44.091A44.091,44.091,0,0,1,0,55.909V44.091A44.091,44.091,0,0,1,44.091,0Z" transform="translate(423 1259)"/>
    </g>
    <g id="Group_1656" data-name="Group 1656" transform="translate(756.25 3954.75)">
      <path id="Path_3078" data-name="Path 3078" class="cls-2" d="M65.626,13.049V46.112c-.25,0-.5-.062-.749-.062a7.508,7.508,0,0,0-7.486,7.486,9.643,9.643,0,0,0,.25,1.934l-11.6-.062V39.375a9.747,9.747,0,0,0,3.556.686A9.295,9.295,0,1,0,40.3,30.766a9.874,9.874,0,0,0,.312,2.371,3.2,3.2,0,0,0-1,2.371V45.862l-1.5-.312A6.882,6.882,0,0,1,33,41.371v-27.7h.374A7.508,7.508,0,0,0,40.86,6.187V6H57.392a7.522,7.522,0,0,0,7.486,7.112A3.037,3.037,0,0,0,65.626,13.049Z" transform="translate(-12.414 -2.257)"/>
      <path id="Path_3079" data-name="Path 3079" class="cls-3" d="M28.945,71.3V64.5H2.371v6.8H0v-9.17H24.7V57.891H28.01a2.3,2.3,0,0,0,2.308-2.308V32.751a2.183,2.183,0,1,0-4.367,0V44.915l-2.87-.5a8.426,8.426,0,0,1-6.862-8.3V20.711H15.034A3.488,3.488,0,0,0,11.541,24.2V37.055H9.17v-7.86H8.11a2.862,2.862,0,0,0-2.87,2.87V60.012H2.807V32.065a5.272,5.272,0,0,1,5.24-5.24H9.17V24.2a5.857,5.857,0,0,1,5.864-5.864H18.59V36.119a6.051,6.051,0,0,0,5.053,5.926V32.751a4.451,4.451,0,0,1,.686-2.433l-2.246.624-.062-.25a13.266,13.266,0,0,1-.437-2.745V27.7l2.371-.125v.25a12.275,12.275,0,0,0,.312,2.183l.062.187A4.686,4.686,0,0,1,28.2,28.134a4.391,4.391,0,0,1,3.743,2.059A4.156,4.156,0,0,0,35,31.5c1.809,0,2.932-.686,2.932-1.809,0-.936-.936-1.435-2.932-1.684-2.5-.25-4.554-.686-4.554-3.244s2.87-3.119,3.743-3.182h.062V20.212h1.934v1.372a4.241,4.241,0,0,1,3.244,1.871l.125.25-1.622.749-.125-.125a4.014,4.014,0,0,0-2.87-1.061c-1.248,0-2.5.5-2.5,1.56s1.123,1.31,2.994,1.56c2.059.25,4.616.624,4.616,3.369,0,1.934-1.435,3.182-3.868,3.431v1.622H34.248v-1.5A7.666,7.666,0,0,1,32.688,33V51.528h17.4V2.371H18.278V16.718H15.908V0H52.526V4.616H58.2V26.887H55.832V6.987H52.526V53.9H32.688V55.52A4.672,4.672,0,0,1,28.01,60.2h-.936v1.871h4.242v9.17H28.945Zm-5.427-2.62V66.313h3.306v2.371Zm10.605-9.17V57.142H55.77v-8.3H58.14V59.513Zm5.739-9.045v-.25A8.919,8.919,0,0,1,48.783,41.3h.25v2.371h-.25a6.549,6.549,0,0,0-6.55,6.55v.25ZM55.77,46.849V43.855H58.14v2.994Zm0-4.991V38.864H58.14v2.994ZM34.123,37.741h.25a9.184,9.184,0,0,0,2.246-.25l.25-.062.5,2.308-.25.062a13.215,13.215,0,0,1-2.745.312h-.25Zm4.367-.873.25-.125a8.958,8.958,0,0,0,1.934-1.185l.187-.125L42.3,37.3l-.187.125a11.431,11.431,0,0,1-2.371,1.435l-.25.125Zm17.28,0V33.874H58.14v2.994Zm-13.662-2.62.187-.187a9.778,9.778,0,0,0,1.248-1.871l.125-.25,2.121,1.123-.125.25a11.123,11.123,0,0,1-1.56,2.246l-.187.187ZM55.77,31.877V28.883H58.14v2.994Zm-11.541-1.5.062-.25a12.274,12.274,0,0,0,.374-2.183V27.7l2.371.125v.25a12.679,12.679,0,0,1-.437,2.682l-.062.25Zm.312-4.679a8.3,8.3,0,0,0-.624-2.121l-.062-.25,2.183-.873.062.25a20.653,20.653,0,0,1,.749,2.62l.062.25-2.371.374Zm-22.77-.187.062-.25a12.6,12.6,0,0,1,.749-2.62l.125-.25,2.183.873-.125.25a13.632,13.632,0,0,0-.624,2.121l-.062.25Zm21.148-3.93A9.311,9.311,0,0,0,41.484,19.9l-.187-.187,1.622-1.747.187.187a9.6,9.6,0,0,1,1.747,2.121l.125.187-1.934,1.372ZM23.705,20.4l.125-.187a11.271,11.271,0,0,1,1.809-2.059l.187-.187,1.622,1.747-.187.187a7.347,7.347,0,0,0-1.435,1.684l-.125.187Zm15.97-1.871a11.645,11.645,0,0,0-2-.936l-.25-.062.749-2.246.25.062a13.027,13.027,0,0,1,2.5,1.185l.187.125-1.248,2Zm-12.04-1.934.187-.125a9.9,9.9,0,0,1,2.5-1.123l.25-.062.749,2.246-.25.062a15.024,15.024,0,0,0-2.059.936l-.187.125Zm7.86.5a7.163,7.163,0,0,0-1.185-.062,5.708,5.708,0,0,0-1.061.062H33l-.25-2.371H33a9.213,9.213,0,0,1,1.31-.062,11.043,11.043,0,0,1,1.435.062h.25l-.25,2.371ZM48.845,12.6a8.919,8.919,0,0,1-8.921-8.921v-.25H42.3v.25a6.549,6.549,0,0,0,6.55,6.55h.25V12.6h-.25Zm-28.509,0V10.231h.25a6.549,6.549,0,0,0,6.55-6.55v-.25h2.371v.25A8.919,8.919,0,0,1,20.586,12.6Z"/>
    </g>
  </g>
</svg>
