<svg xmlns="http://www.w3.org/2000/svg" xmlns:xlink="http://www.w3.org/1999/xlink" viewBox="406.5 1397.5 133 133">
  <defs>
    <style>
      .cls-1 {
        fill: #f7deb9;
      }

      .cls-2 {
        fill: #fca527;
      }

      .cls-3 {
        fill: #777;
      }

      .cls-4 {
        filter: url(#Path_3045);
      }
    </style>
    <filter id="Path_3045" x="406.5" y="1397.5" width="133" height="133" filterUnits="userSpaceOnUse">
      <feOffset dy="5" input="SourceAlpha"/>
      <feGaussianBlur stdDeviation="5.5" result="blur"/>
      <feFlood flood-color="#777" flood-opacity="0.2"/>
      <feComposite operator="in" in2="blur"/>
      <feComposite in="SourceGraphic"/>
    </filter>
  </defs>
  <g id="Group_1685" data-name="Group 1685" transform="translate(-312 -2680)">
    <g class="cls-4" transform="matrix(1, 0, 0, 1, 312, 2680)">
      <path id="Path_3045-2" data-name="Path 3045" class="cls-1" d="M44.091,0H55.909A44.091,44.091,0,0,1,100,44.091V55.909A44.091,44.091,0,0,1,55.909,100H44.091A44.091,44.091,0,0,1,0,55.909V44.091A44.091,44.091,0,0,1,44.091,0Z" transform="translate(423 1409)"/>
    </g>
    <g id="Group_1655" data-name="Group 1655" transform="translate(751.25 4107.75)">
      <path id="Path_3075" data-name="Path 3075" class="cls-2" d="M44.853,33.9a6.353,6.353,0,1,0,6.353,6.353A6.364,6.364,0,0,0,44.853,33.9Zm.754,9.69h-.161v.969h-.861v-.915h-.162A2.974,2.974,0,0,1,42.053,42.3l.808-.323a2.431,2.431,0,0,0,2.046.969c1.184,0,1.884-.485,1.884-1.238,0-.861-1.077-1.077-1.938-1.184-1.507-.162-2.638-.377-2.638-1.83,0-1.4,1.615-1.723,2.1-1.777h.162v-.808h.861v.808H45.5a2.338,2.338,0,0,1,1.83,1.023l-.7.323a2.528,2.528,0,0,0-1.723-.7c-1.131,0-1.777.377-1.777,1.077,0,.861.969.969,1.777,1.023,1.561.161,2.8.485,2.8,1.938A1.98,1.98,0,0,1,45.606,43.59Zm28.64,17.066A1.333,1.333,0,0,0,75.592,62h7.86v4.038a5.537,5.537,0,0,1-5.545,5.545H58.419V50.912h19.6a5.537,5.537,0,0,1,5.545,5.545v2.8H75.7A1.437,1.437,0,0,0,74.246,60.656Z" transform="translate(-17.774 -15.65)"/>
      <path id="Path_3076" data-name="Path 3076" class="cls-3" d="M38.384,61.8a21.255,21.255,0,0,1-15.128-6.245v3.284H21.211V52.22h6.622v2.046H24.872a19.286,19.286,0,0,0,13.513,5.491,19.063,19.063,0,0,0,10.875-3.338H37.415V32.032H59.6a6.985,6.985,0,0,1,7,7V49.367a6.985,6.985,0,0,1-7,7h-7A21.127,21.127,0,0,1,38.384,61.8ZM59.6,54.373a4.985,4.985,0,0,0,4.953-4.9H57.011a4.63,4.63,0,0,1-4.63-4.63v-.969a4.629,4.629,0,0,1,4.63-4.63h7.537A4.967,4.967,0,0,0,59.6,34.131H39.407V54.373ZM57.011,41.237a2.585,2.585,0,0,0-2.584,2.584v.969a2.585,2.585,0,0,0,2.584,2.584h7.537V41.237ZM42.26,54.319V51.735h2.046v2.584ZM6.676,51.3A6.674,6.674,0,0,1,0,44.629v-2.8H5.383V4.576h51.2v26H54.535V6.622H7.429V41.883H36.015v2.046H2.1v.754a4.664,4.664,0,0,0,4.63,4.63H35.854v2.046H6.676ZM42.26,50.013V47.428h2.046v2.584Zm0-4.307V43.122h2.046v2.584Zm14.751-.431V43.229H59.6v2.046ZM42.26,41.4V38.815h2.046V41.4ZM9.206,40.538V8.99H52.6v7.86H50.551V11.036h-39.3V40.591H9.206ZM42.26,37.092V34.508h2.046v2.584Zm-16.2-1.669a10.725,10.725,0,0,1-2.261-.215l-.215-.054.377-1.992.215.054a10.068,10.068,0,0,0,1.83.162h.323v2.046Zm1.777-2.207.215-.054a10.388,10.388,0,0,0,1.83-.592l.215-.108.861,1.884-.215.108a10.144,10.144,0,0,1-2.261.754l-.215.054Zm-6.3,1.292a15.163,15.163,0,0,1-2.046-1.131l-.162-.108L20.511,31.6l.162.108a7.24,7.24,0,0,0,1.669.915l.215.108-.808,1.884Zm9.852-2.8.162-.108A8.322,8.322,0,0,0,33,30.309l.162-.162,1.507,1.346-.162.162a11.586,11.586,0,0,1-1.723,1.561l-.162.108ZM26,31.978a8.021,8.021,0,1,1,6.676-12.436,22.751,22.751,0,0,1,5.706-.754,21.031,21.031,0,0,1,12.167,3.822V19.6H52.6v6.622H45.975V24.226h3.284a19.063,19.063,0,0,0-10.875-3.338,20.484,20.484,0,0,0-4.791.592A7.957,7.957,0,0,1,26,31.978Zm0-13.943a5.976,5.976,0,1,0,5.976,5.976A6,6,0,0,0,26,18.035ZM17.712,31.816a12.528,12.528,0,0,1-1.454-1.884l-.108-.162,1.723-1.077.108.162a10.84,10.84,0,0,0,1.184,1.561l.162.162-1.507,1.4Zm16.312-2.961.108-.162a8.927,8.927,0,0,0,.808-1.777l.054-.215,1.938.646-.054.215a15.475,15.475,0,0,1-.969,2.153l-.108.162Zm-8.829.054V27.886a3.3,3.3,0,0,1-2.746-1.615l-.108-.215,1.292-.538.108.162a2.5,2.5,0,0,0,2.153.969c.915,0,1.777-.377,1.777-1.184,0-.754-.754-.915-1.992-1.077-1.346-.162-2.961-.377-2.961-2.207,0-.7.323-1.83,2.53-2.153v-.915h1.4v.915A2.838,2.838,0,0,1,28.8,21.265l.108.215-1.184.538-.108-.108a2.516,2.516,0,0,0-1.884-.7c-.808,0-1.615.323-1.615,1.023s.754.808,1.938.969c1.4.162,3.122.431,3.122,2.315,0,1.292-.969,2.153-2.584,2.315v1.077h-1.4Zm-9.959-1.077a11.14,11.14,0,0,1-.538-2.315l-.054-.215,2.046-.269.054.215a10.668,10.668,0,0,0,.431,1.884l.054.215-1.938.7Zm-.646-4.468v-.215a10.991,10.991,0,0,1,.431-2.315l.054-.215,1.992.538-.054.215a11.5,11.5,0,0,0-.323,1.884v.215Zm1.238-4.522.108-.215a12.139,12.139,0,0,1,1.292-1.938l.162-.162,1.561,1.292-.162.162A8.438,8.438,0,0,0,17.712,19.6l-.108.215ZM32.57,17.335A16.755,16.755,0,0,0,31.063,16.1l-.162-.108,1.131-1.723.162.108a12.066,12.066,0,0,1,1.83,1.454l.162.162-1.454,1.454ZM18.735,15.181l.162-.108a12.644,12.644,0,0,1,1.992-1.292l.215-.108.915,1.83-.215.108a8.226,8.226,0,0,0-1.615,1.023l-.162.108Zm10.605.054a10.742,10.742,0,0,0-1.884-.485L27.24,14.7l.323-2.046.215.054a10.752,10.752,0,0,1,2.261.592l.215.054L29.5,15.289Zm-6.46-2.261.215-.054a11.532,11.532,0,0,1,2.315-.377h.215l.108,2.046h-.215a11.986,11.986,0,0,0-1.938.269l-.215.054Zm23.1-10.928V0h3.661V2.046Zm-35.262,0V0h33V2.046Z"/>
    </g>
  </g>
</svg>
