<?xml version="1.0" encoding="utf-8"?>
<!-- Generator: Adobe Illustrator 16.0.0, SVG Export Plug-In . SVG Version: 6.00 Build 0)  -->
<!DOCTYPE svg PUBLIC "-//W3C//DTD SVG 1.1//EN" "http://www.w3.org/Graphics/SVG/1.1/DTD/svg11.dtd">
<svg version="1.1" id="Layer_1" xmlns="http://www.w3.org/2000/svg" xmlns:xlink="http://www.w3.org/1999/xlink" x="0px" y="0px"
	 width="450px" height="240px" viewBox="0 0 450 240" enable-background="new 0 0 450 240" xml:space="preserve">
<path id="s" opacity="0.75" fill-opacity="0.02" d="M37.5-20L0,0l37.5,20V-20z"/>
<path id="s_1_" opacity="0.75" fill-opacity="0.06" d="M0,0l37.5,20L0,40V0z"/>
<path id="s_2_" opacity="0.75" fill-opacity="0.03" d="M37.5,20L0,40l37.5,20V20z"/>
<path id="s_3_" opacity="0.75" fill-opacity="0.06" d="M0,40l37.5,20L0,80V40z"/>
<path id="s_4_" opacity="0.75" fill-opacity="0.08" d="M37.5,60L0,80l37.5,20V60z"/>
<path id="s_5_" opacity="0.75" fill-opacity="0.04" d="M0,80l37.5,20L0,120V80z"/>
<path id="s_6_" opacity="0.75" fill-opacity="0.04" d="M37.5,100L0,120l37.5,20V100z"/>
<path id="s_7_" opacity="0.75" fill-opacity="0.06" d="M37.5-20L75,0L37.5,20V-20z"/>
<path id="s_8_" opacity="0.75" fill-opacity="0.06" d="M75,0L37.5,20L75,40V0z"/>
<path id="s_9_" opacity="0.75" fill-opacity="0.06" d="M37.5,20L75,40L37.5,60V20z"/>
<path id="s_10_" opacity="0.75" fill-opacity="0.04" d="M75,40L37.5,60L75,80V40z"/>
<path id="s_11_" opacity="0.75" fill-opacity="0.02" d="M37.5,60L75,80l-37.5,20V60z"/>
<path id="s_12_" opacity="0.75" fill-opacity="0.04" d="M75,80l-37.5,20L75,120V80z"/>
<path id="s_13_" opacity="0.75" fill-opacity="0.06" d="M37.5,100L75,120l-37.5,20V100z"/>
<path id="s_14_" opacity="0.75" fill-opacity="0.04" d="M112.5-20L75,0l37.5,20V-20z"/>
<path id="s_15_" opacity="0.75" fill-opacity="0.04" d="M75,0l37.5,20L75,40V0z"/>
<path id="s_16_" opacity="0.75" fill-opacity="0.05" d="M112.5,20L75,40l37.5,20V20z"/>
<path id="s_17_" opacity="0.75" fill-opacity="0.04" d="M75,40l37.5,20L75,80V40z"/>
<path id="s_18_" opacity="0.75" fill-opacity="0.02" d="M112.5,60L75,80l37.5,20V60z"/>
<path id="s_19_" opacity="0.75" fill-opacity="0.04" d="M75,80l37.5,20L75,120V80z"/>
<path id="s_20_" opacity="0.75" fill-opacity="0.04" d="M112.5,100L75,120l37.5,20V100z"/>
<path id="s_21_" opacity="0.75" fill-opacity="0.04" d="M112.5-20L150,0l-37.5,20V-20z"/>
<path id="s_22_" opacity="0.75" fill-opacity="0.04" d="M150,0l-37.5,20L150,40V0z"/>
<path id="s_23_" opacity="0.75" fill-opacity="0.02" d="M112.5,20L150,40l-37.5,20V20z"/>
<path id="s_24_" opacity="0.75" fill-opacity="0.07" d="M150,40l-37.5,20L150,80V40z"/>
<path id="s_25_" opacity="0.75" fill-opacity="0.06" d="M112.5,60L150,80l-37.5,20V60z"/>
<path id="s_26_" opacity="0.75" fill-opacity="0.02" d="M150,80l-37.5,20l37.5,20V80z"/>
<path id="s_27_" opacity="0.75" fill-opacity="0.04" d="M112.5,100l37.5,20l-37.5,20V100z"/>
<path id="s_28_" opacity="0.75" fill-opacity="0.06" d="M187.5-20L150,0l37.5,20V-20z"/>
<path id="s_29_" opacity="0.75" fill-opacity="0.08" d="M150,0l37.5,20L150,40V0z"/>
<path id="s_30_" opacity="0.75" fill-opacity="0.02" d="M187.5,20L150,40l37.5,20V20z"/>
<path id="s_31_" opacity="0.75" fill-opacity="0.04" d="M150,40l37.5,20L150,80V40z"/>
<path id="s_32_" opacity="0.75" fill-opacity="0.05" d="M187.5,60L150,80l37.5,20V60z"/>
<path id="s_33_" opacity="0.75" fill-opacity="0.02" d="M150,80l37.5,20L150,120V80z"/>
<path id="s_34_" opacity="0.75" fill-opacity="0.03" d="M187.5,100L150,120l37.5,20V100z"/>
<path id="s_35_" opacity="0.75" fill-opacity="0.04" d="M187.5-20L225,0l-37.5,20V-20z"/>
<path id="s_36_" opacity="0.75" fill-opacity="0.04" d="M225,0l-37.5,20L225,40V0z"/>
<path id="s_37_" opacity="0.75" fill-opacity="0.08" d="M187.5,20L225,40l-37.5,20V20z"/>
<path id="s_38_" opacity="0.75" fill-opacity="0.04" d="M225,40l-37.5,20L225,80V40z"/>
<path id="s_39_" opacity="0.75" fill-opacity="0.06" d="M187.5,60L225,80l-37.5,20V60z"/>
<path id="s_40_" opacity="0.75" fill-opacity="0.04" d="M225,80l-37.5,20l37.5,20V80z"/>
<path id="s_41_" opacity="0.75" fill-opacity="0.04" d="M187.5,100l37.5,20l-37.5,20V100z"/>
<path id="s_42_" opacity="0.75" fill-opacity="0.02" d="M187.5,100l37.5,20l-37.5,20V100z"/>
<path id="s_43_" opacity="0.75" fill-opacity="0.06" d="M225,120l-37.5,20l37.5,20V120z"/>
<path id="s_44_" opacity="0.75" fill-opacity="0.03" d="M187.5,140l37.5,20l-37.5,20V140z"/>
<path id="s_45_" opacity="0.75" fill-opacity="0.06" d="M225,160l-37.5,20l37.5,20V160z"/>
<path id="s_46_" opacity="0.75" fill-opacity="0.08" d="M187.5,180l37.5,20l-37.5,20V180z"/>
<path id="s_47_" opacity="0.75" fill-opacity="0.04" d="M225,200l-37.5,20l37.5,20V200z"/>
<path id="s_49_" opacity="0.75" fill-opacity="0.06" d="M187.5,100L150,120l37.5,20V100z"/>
<path id="s_50_" opacity="0.75" fill-opacity="0.06" d="M150,120l37.5,20L150,160V120z"/>
<path id="s_51_" opacity="0.75" fill-opacity="0.06" d="M187.5,140L150,160l37.5,20V140z"/>
<path id="s_52_" opacity="0.75" fill-opacity="0.04" d="M150,160l37.5,20L150,200V160z"/>
<path id="s_53_" opacity="0.75" fill-opacity="0.02" d="M187.5,180L150,200l37.5,20V180z"/>
<path id="s_54_" opacity="0.75" fill-opacity="0.04" d="M150,200l37.5,20L150,240V200z"/>
<path id="s_56_" opacity="0.75" fill-opacity="0.04" d="M112.5,100l37.5,20l-37.5,20V100z"/>
<path id="s_57_" opacity="0.75" fill-opacity="0.04" d="M150,120l-37.5,20l37.5,20V120z"/>
<path id="s_58_" opacity="0.75" fill-opacity="0.05" d="M112.5,140l37.5,20l-37.5,20V140z"/>
<path id="s_59_" opacity="0.75" fill-opacity="0.04" d="M150,160l-37.5,20l37.5,20V160z"/>
<path id="s_60_" opacity="0.75" fill-opacity="0.02" d="M112.5,180l37.5,20l-37.5,20V180z"/>
<path id="s_61_" opacity="0.75" fill-opacity="0.04" d="M150,200l-37.5,20l37.5,20V200z"/>
<path id="s_63_" opacity="0.75" fill-opacity="0.04" d="M112.5,100L75,120l37.5,20V100z"/>
<path id="s_64_" opacity="0.75" fill-opacity="0.04" d="M75,120l37.5,20L75,160V120z"/>
<path id="s_65_" opacity="0.75" fill-opacity="0.02" d="M112.5,140L75,160l37.5,20V140z"/>
<path id="s_66_" opacity="0.75" fill-opacity="0.07" d="M75,160l37.5,20L75,200V160z"/>
<path id="s_67_" opacity="0.75" fill-opacity="0.06" d="M112.5,180L75,200l37.5,20V180z"/>
<path id="s_68_" opacity="0.75" fill-opacity="0.02" d="M75,200l37.5,20L75,240V200z"/>
<path id="s_70_" opacity="0.75" fill-opacity="0.06" d="M37.5,100L75,120l-37.5,20V100z"/>
<path id="s_71_" opacity="0.75" fill-opacity="0.08" d="M75,120l-37.5,20L75,160V120z"/>
<path id="s_72_" opacity="0.75" fill-opacity="0.02" d="M37.5,140L75,160l-37.5,20V140z"/>
<path id="s_73_" opacity="0.75" fill-opacity="0.04" d="M75,160l-37.5,20L75,200V160z"/>
<path id="s_74_" opacity="0.75" fill-opacity="0.05" d="M37.5,180L75,200l-37.5,20V180z"/>
<path id="s_75_" opacity="0.75" fill-opacity="0.02" d="M75,200l-37.5,20L75,240V200z"/>
<path id="s_77_" opacity="0.75" fill-opacity="0.04" d="M37.5,100L0,120l37.5,20V100z"/>
<path id="s_78_" opacity="0.75" fill-opacity="0.04" d="M0,120l37.5,20L0,160V120z"/>
<path id="s_79_" opacity="0.75" fill-opacity="0.08" d="M37.5,140L0,160l37.5,20V140z"/>
<path id="s_80_" opacity="0.75" fill-opacity="0.04" d="M0,160l37.5,20L0,200V160z"/>
<path id="s_81_" opacity="0.75" fill-opacity="0.06" d="M37.5,180L0,200l37.5,20V180z"/>
<path id="s_82_" opacity="0.75" fill-opacity="0.04" d="M0,200l37.5,20L0,240V200z"/>
<path id="s_84_" opacity="0.75" fill-opacity="0.02" d="M412.5,100L450,80l-37.5-20V100z"/>
<path id="s_85_" opacity="0.75" fill-opacity="0.06" d="M450,80l-37.5-20L450,40V80z"/>
<path id="s_86_" opacity="0.75" fill-opacity="0.03" d="M412.5,60L450,40l-37.5-20V60z"/>
<path id="s_87_" opacity="0.75" fill-opacity="0.06" d="M450,40l-37.5-20L450,0V40z"/>
<path id="s_88_" opacity="0.75" fill-opacity="0.08" d="M412.5,20L450,0l-37.5-20V20z"/>
<path id="s_91_" opacity="0.75" fill-opacity="0.06" d="M412.5,100L375,80l37.5-20V100z"/>
<path id="s_92_" opacity="0.75" fill-opacity="0.06" d="M375,80l37.5-20L375,40V80z"/>
<path id="s_93_" opacity="0.75" fill-opacity="0.06" d="M412.5,60L375,40l37.5-20V60z"/>
<path id="s_94_" opacity="0.75" fill-opacity="0.04" d="M375,40l37.5-20L375,0V40z"/>
<path id="s_95_" opacity="0.75" fill-opacity="0.02" d="M412.5,20L375,0l37.5-20V20z"/>
<path id="s_98_" opacity="0.75" fill-opacity="0.04" d="M337.5,100L375,80l-37.5-20V100z"/>
<path id="s_99_" opacity="0.75" fill-opacity="0.04" d="M375,80l-37.5-20L375,40V80z"/>
<path id="s_100_" opacity="0.75" fill-opacity="0.05" d="M337.5,60L375,40l-37.5-20V60z"/>
<path id="s_101_" opacity="0.75" fill-opacity="0.04" d="M375,40l-37.5-20L375,0V40z"/>
<path id="s_102_" opacity="0.75" fill-opacity="0.02" d="M337.5,20L375,0l-37.5-20V20z"/>
<path id="s_105_" opacity="0.75" fill-opacity="0.04" d="M337.5,100L300,80l37.5-20V100z"/>
<path id="s_106_" opacity="0.75" fill-opacity="0.04" d="M300,80l37.5-20L300,40V80z"/>
<path id="s_107_" opacity="0.75" fill-opacity="0.02" d="M337.5,60L300,40l37.5-20V60z"/>
<path id="s_108_" opacity="0.75" fill-opacity="0.07" d="M300,40l37.5-20L300,0V40z"/>
<path id="s_109_" opacity="0.75" fill-opacity="0.06" d="M337.5,20L300,0l37.5-20V20z"/>
<path id="s_112_" opacity="0.75" fill-opacity="0.06" d="M262.5,100L300,80l-37.5-20V100z"/>
<path id="s_113_" opacity="0.75" fill-opacity="0.08" d="M300,80l-37.5-20L300,40V80z"/>
<path id="s_114_" opacity="0.75" fill-opacity="0.02" d="M262.5,60L300,40l-37.5-20V60z"/>
<path id="s_115_" opacity="0.75" fill-opacity="0.04" d="M300,40l-37.5-20L300,0V40z"/>
<path id="s_116_" opacity="0.75" fill-opacity="0.05" d="M262.5,20L300,0l-37.5-20V20z"/>
<path id="s_119_" opacity="0.75" fill-opacity="0.04" d="M262.5,100L225,80l37.5-20V100z"/>
<path id="s_120_" opacity="0.75" fill-opacity="0.04" d="M225,80l37.5-20L225,40V80z"/>
<path id="s_121_" opacity="0.75" fill-opacity="0.08" d="M262.5,60L225,40l37.5-20V60z"/>
<path id="s_122_" opacity="0.75" fill-opacity="0.04" d="M225,40l37.5-20L225,0V40z"/>
<path id="s_123_" opacity="0.75" fill-opacity="0.06" d="M262.5,20L225,0l37.5-20V20z"/>
<g transform="matrix(-1 0 0 1 0 0)" opacity="0.75">
	<path id="s_126_" fill-opacity="0.02" d="M262.5,180L225,160l37.5-20V180z"/>
</g>
<g opacity="0.75">
	<path id="s_127_" fill-opacity="0.06" d="M225,160l37.5-20L225,120V160z"/>
</g>
<g transform="matrix(-1 0 0 1 0 0)" opacity="0.75">
	<path id="s_128_" fill-opacity="0.03" d="M262.5,140L225,120l37.5-20V140z"/>
</g>
<g opacity="0.75">
	<path id="s_129_" fill-opacity="0.06" d="M225,120l37.5-20L225,80V120z"/>
</g>
<g transform="matrix(-1 0 0 1 0 0)" opacity="0.75">
	<path id="s_130_" fill-opacity="0.08" d="M262.5,100L225,80l37.5-20V100z"/>
</g>
<g opacity="0.75">
	<path id="s_131_" fill-opacity="0.04" d="M225,80l37.5-20L225,40V80z"/>
</g>
<g transform="matrix(-1 0 0 1 0 0)" opacity="0.75">
	<path id="s_132_" fill-opacity="0.04" d="M262.5,60L225,40l37.5-20V60z"/>
</g>
<g opacity="0.75">
	<path id="s_133_" fill-opacity="0.06" d="M262.5,180l37.5-20l-37.5-20V180z"/>
</g>
<g transform="matrix(-1 0 0 1 0 0)" opacity="0.75">
	<path id="s_134_" fill-opacity="0.06" d="M300,160l-37.5-20l37.5-20V160z"/>
</g>
<g opacity="0.75">
	<path id="s_135_" fill-opacity="0.06" d="M262.5,140l37.5-20l-37.5-20V140z"/>
</g>
<g transform="matrix(-1 0 0 1 0 0)" opacity="0.75">
	<path id="s_136_" fill-opacity="0.04" d="M300,120l-37.5-20L300,80V120z"/>
</g>
<g opacity="0.75">
	<path id="s_137_" fill-opacity="0.02" d="M262.5,100L300,80l-37.5-20V100z"/>
</g>
<g transform="matrix(-1 0 0 1 0 0)" opacity="0.75">
	<path id="s_138_" fill-opacity="0.04" d="M300,80l-37.5-20L300,40V80z"/>
</g>
<g opacity="0.75">
	<path id="s_139_" fill-opacity="0.06" d="M262.5,60L300,40l-37.5-20V60z"/>
</g>
<g transform="matrix(-1 0 0 1 0 0)" opacity="0.75">
	<path id="s_140_" fill-opacity="0.04" d="M337.5,180L300,160l37.5-20V180z"/>
</g>
<g opacity="0.75">
	<path id="s_141_" fill-opacity="0.04" d="M300,160l37.5-20L300,120V160z"/>
</g>
<g transform="matrix(-1 0 0 1 0 0)" opacity="0.75">
	<path id="s_142_" fill-opacity="0.05" d="M337.5,140L300,120l37.5-20V140z"/>
</g>
<g opacity="0.75">
	<path id="s_143_" fill-opacity="0.04" d="M300,120l37.5-20L300,80V120z"/>
</g>
<g transform="matrix(-1 0 0 1 0 0)" opacity="0.75">
	<path id="s_144_" fill-opacity="0.02" d="M337.5,100L300,80l37.5-20V100z"/>
</g>
<g opacity="0.75">
	<path id="s_145_" fill-opacity="0.04" d="M300,80l37.5-20L300,40V80z"/>
</g>
<g transform="matrix(-1 0 0 1 0 0)" opacity="0.75">
	<path id="s_146_" fill-opacity="0.04" d="M337.5,60L300,40l37.5-20V60z"/>
</g>
<g opacity="0.75">
	<path id="s_147_" fill-opacity="0.04" d="M337.5,180l37.5-20l-37.5-20V180z"/>
</g>
<g transform="matrix(-1 0 0 1 0 0)" opacity="0.75">
	<path id="s_148_" fill-opacity="0.04" d="M375,160l-37.5-20l37.5-20V160z"/>
</g>
<g opacity="0.75">
	<path id="s_149_" fill-opacity="0.02" d="M337.5,140l37.5-20l-37.5-20V140z"/>
</g>
<g transform="matrix(-1 0 0 1 0 0)" opacity="0.75">
	<path id="s_150_" fill-opacity="0.07" d="M375,120l-37.5-20L375,80V120z"/>
</g>
<g opacity="0.75">
	<path id="s_151_" fill-opacity="0.06" d="M337.5,100L375,80l-37.5-20V100z"/>
</g>
<g transform="matrix(-1 0 0 1 0 0)" opacity="0.75">
	<path id="s_152_" fill-opacity="0.02" d="M375,80l-37.5-20L375,40V80z"/>
</g>
<g opacity="0.75">
	<path id="s_153_" fill-opacity="0.04" d="M337.5,60L375,40l-37.5-20V60z"/>
</g>
<g transform="matrix(-1 0 0 1 0 0)" opacity="0.75">
	<path id="s_154_" fill-opacity="0.06" d="M412.5,180L375,160l37.5-20V180z"/>
</g>
<g opacity="0.75">
	<path id="s_155_" fill-opacity="0.08" d="M375,160l37.5-20L375,120V160z"/>
</g>
<g transform="matrix(-1 0 0 1 0 0)" opacity="0.75">
	<path id="s_156_" fill-opacity="0.02" d="M412.5,140L375,120l37.5-20V140z"/>
</g>
<g opacity="0.75">
	<path id="s_157_" fill-opacity="0.04" d="M375,120l37.5-20L375,80V120z"/>
</g>
<g transform="matrix(-1 0 0 1 0 0)" opacity="0.75">
	<path id="s_158_" fill-opacity="0.05" d="M412.5,100L375,80l37.5-20V100z"/>
</g>
<g opacity="0.75">
	<path id="s_159_" fill-opacity="0.02" d="M375,80l37.5-20L375,40V80z"/>
</g>
<g transform="matrix(-1 0 0 1 0 0)" opacity="0.75">
	<path id="s_160_" fill-opacity="0.03" d="M412.5,60L375,40l37.5-20V60z"/>
</g>
<g opacity="0.75">
	<path id="s_161_" fill-opacity="0.04" d="M412.5,180l37.5-20l-37.5-20V180z"/>
</g>
<g transform="matrix(-1 0 0 1 0 0)" opacity="0.75">
	<path id="s_162_" fill-opacity="0.04" d="M450,160l-37.5-20l37.5-20V160z"/>
</g>
<g opacity="0.75">
	<path id="s_163_" fill-opacity="0.08" d="M412.5,140l37.5-20l-37.5-20V140z"/>
</g>
<g transform="matrix(-1 0 0 1 0 0)" opacity="0.75">
	<path id="s_164_" fill-opacity="0.04" d="M450,120l-37.5-20L450,80V120z"/>
</g>
<g opacity="0.75">
	<path id="s_165_" fill-opacity="0.06" d="M412.5,100L450,80l-37.5-20V100z"/>
</g>
<g transform="matrix(-1 0 0 1 0 0)" opacity="0.75">
	<path id="s_166_" fill-opacity="0.04" d="M450,80l-37.5-20L450,40V80z"/>
</g>
<g transform="matrix(1 0 0 -1 0 0)" opacity="0.75">
	<path id="s_167_" fill-opacity="0.04" d="M412.5,60L450,40l-37.5-20V60z"/>
</g>
<g id="b_4_" opacity="0.75">
	<g>
		<path id="s_171_" fill-opacity="0.06" d="M225,240l37.5-20L225,200V240z"/>
	</g>
	<g transform="matrix(-1 0 0 1 0 0)">
		<path id="s_172_" fill-opacity="0.08" d="M262.5,220L225,200l37.5-20V220z"/>
	</g>
	<g>
		<path id="s_173_" fill-opacity="0.04" d="M225,200l37.5-20L225,160V200z"/>
	</g>
	<g transform="matrix(-1 0 0 1 0 0)">
		<path id="s_174_" fill-opacity="0.04" d="M262.5,180L225,160l37.5-20V180z"/>
	</g>
	<g transform="matrix(-1 0 0 1 0 0)">
		<path id="s_178_" fill-opacity="0.04" d="M300,240l-37.5-20l37.5-20V240z"/>
	</g>
	<g>
		<path id="s_179_" fill-opacity="0.02" d="M262.5,220l37.5-20l-37.5-20V220z"/>
	</g>
	<g transform="matrix(-1 0 0 1 0 0)">
		<path id="s_180_" fill-opacity="0.04" d="M300,200l-37.5-20l37.5-20V200z"/>
	</g>
	<g>
		<path id="s_181_" fill-opacity="0.06" d="M262.5,180l37.5-20l-37.5-20V180z"/>
	</g>
	<g>
		<path id="s_185_" fill-opacity="0.04" d="M300,240l37.5-20L300,200V240z"/>
	</g>
	<g transform="matrix(-1 0 0 1 0 0)">
		<path id="s_186_" fill-opacity="0.02" d="M337.5,220L300,200l37.5-20V220z"/>
	</g>
	<g>
		<path id="s_187_" fill-opacity="0.04" d="M300,200l37.5-20L300,160V200z"/>
	</g>
	<g transform="matrix(-1 0 0 1 0 0)">
		<path id="s_188_" fill-opacity="0.04" d="M337.5,180L300,160l37.5-20V180z"/>
	</g>
	<g transform="matrix(-1 0 0 1 0 0)">
		<path id="s_192_" fill-opacity="0.07" d="M375,240l-37.5-20l37.5-20V240z"/>
	</g>
	<g>
		<path id="s_193_" fill-opacity="0.06" d="M337.5,220l37.5-20l-37.5-20V220z"/>
	</g>
	<g transform="matrix(-1 0 0 1 0 0)">
		<path id="s_194_" fill-opacity="0.02" d="M375,200l-37.5-20l37.5-20V200z"/>
	</g>
	<g>
		<path id="s_195_" fill-opacity="0.04" d="M337.5,180l37.5-20l-37.5-20V180z"/>
	</g>
	<g>
		<path id="s_199_" fill-opacity="0.04" d="M375,240l37.5-20L375,200V240z"/>
	</g>
	<g transform="matrix(-1 0 0 1 0 0)">
		<path id="s_200_" fill-opacity="0.05" d="M412.5,220L375,200l37.5-20V220z"/>
	</g>
	<g>
		<path id="s_201_" fill-opacity="0.02" d="M375,200l37.5-20L375,160V200z"/>
	</g>
	<g transform="matrix(-1 0 0 1 0 0)">
		<path id="s_202_" fill-opacity="0.03" d="M412.5,180L375,160l37.5-20V180z"/>
	</g>
	<g transform="matrix(-1 0 0 1 0 0)">
		<path id="s_206_" fill-opacity="0.04" d="M450,240l-37.5-20l37.5-20V240z"/>
	</g>
	<g>
		<path id="s_207_" fill-opacity="0.06" d="M412.5,220l37.5-20l-37.5-20V220z"/>
	</g>
	<g transform="matrix(-1 0 0 1 0 0)">
		<path id="s_208_" fill-opacity="0.04" d="M450,200l-37.5-20l37.5-20V200z"/>
	</g>
	<g transform="matrix(1 0 0 -1 0 0)">
		<path id="s_209_" fill-opacity="0.04" d="M412.5,180l37.5-20l-37.5-20V180z"/>
	</g>
</g>
<path id="s_175_" opacity="0.75" fill-opacity="0.02" d="M37.5,220L0,240l37.5,20V220z"/>
<path id="s_118_" opacity="0.75" fill-opacity="0.06" d="M37.5,220L75,240l-37.5,20V220z"/>
<path id="s_111_" opacity="0.75" fill-opacity="0.04" d="M112.5,220L75,240l37.5,20V220z"/>
<path id="s_90_" opacity="0.75" fill-opacity="0.04" d="M112.5,220l37.5,20l-37.5,20V220z"/>
<path id="s_79_" opacity="0.75" fill-opacity="0.06" d="M187.5,220L150,240l37.5,20V220z"/>
<path id="s_77_" opacity="0.75" fill-opacity="0.04" d="M187.5,220l37.5,20l-37.5,20V220z"/>
<path id="s_71_" opacity="0.75" fill-opacity="0.08" d="M412.5,260l37.5-20l-37.5-20V260z"/>
<path id="s_69_" opacity="0.75" fill-opacity="0.02" d="M412.5,260L375,240l37.5-20V260z"/>
<path id="s_55_" opacity="0.75" fill-opacity="0.02" d="M337.5,260l37.5-20l-37.5-20V260z"/>
<path id="s_9_" opacity="0.75" fill-opacity="0.06" d="M337.5,260L300,240l37.5-20V260z"/>
<path id="s_7_" opacity="0.75" fill-opacity="0.05" d="M262.5,260l37.5-20l-37.5-20V260z"/>
<path id="s_1_" opacity="0.75" fill-opacity="0.06" d="M262.5,260L225,240l37.5-20V260z"/>
</svg>
