<svg height="430" viewBox="0 0 563 430" width="563" xmlns="http://www.w3.org/2000/svg"><g fill="none" transform=""><path d="m529.385795 136.658338c-103.826806-160.3693959-208.172746-179.5929411-313.03782-57.670636-157.297611 182.883457-164.0463534 377.197132-34.78198 348.102036 55.433868-12.477171 282.290129-47.63119 362.355553-124.173711 29.601661-28.29918 24.756411-83.71841-14.535753-166.257689z" fill="#439bc3" opacity=".1"/><path d="m362.084371 175.909031c-85.742219-132.5575856-171.913149-148.4473178-258.51279-47.669196-129.8994619 151.167182-135.4727061 311.782313-28.7236435 287.732989 45.7783775-10.313337 233.1207415-39.370826 299.2403445-102.639082 24.445634-23.391438 20.44433-69.199675-12.003911-137.424711z" fill="#00a98e" opacity=".1" transform="matrix(-1 0 0 1 389.843642 0)"/></g></svg>